<?xml version="1.0" encoding="UTF-8" standalone="no"?>
<!DOCTYPE svg PUBLIC "-//W3C//DTD SVG 1.1//EN" "http://www.w3.org/Graphics/SVG/1.1/DTD/svg11.dtd">
<svg width="100%" height="100%" viewBox="0 0 24 24" version="1.1" xmlns="http://www.w3.org/2000/svg" xmlns:xlink="http://www.w3.org/1999/xlink" xml:space="preserve" xmlns:serif="http://www.serif.com/" style="fill-rule:evenodd;clip-rule:evenodd;stroke-linejoin:round;stroke-miterlimit:2;">
    <g transform="matrix(0.210101,0,0,0.210101,-1.4726,-1.45159)">
        <path d="M52.359,45.768L52.681,45.777C55.359,45.934 57.482,48.156 57.482,50.873L57.482,66.376C57.482,69.195 55.195,71.482 52.376,71.482L52.375,71.482C46.363,71.482 41.482,76.363 41.482,82.375C41.482,88.386 46.363,93.267 52.375,93.267C58.183,93.267 62.936,88.711 63.25,82.982C63.251,82.966 63.251,82.951 63.251,82.936L63.251,13.969C63.251,12.669 63.769,11.422 64.687,10.503C65.607,9.583 66.853,9.067 68.153,9.067L84.074,9.067C85.374,9.067 86.621,9.583 87.541,10.503C88.459,11.422 88.976,12.669 88.976,13.969L88.989,16.899C90.056,22.688 94.093,30.711 107.637,33.064C107.639,33.065 107.641,33.065 107.643,33.065C110.429,33.562 112.457,35.984 112.457,38.799C112.457,38.801 112.457,38.803 112.457,38.804C112.482,42.665 112.482,48.625 112.482,52.663C112.482,54.251 111.838,55.77 110.698,56.875C109.558,57.98 108.019,58.576 106.432,58.525C106.43,58.525 106.428,58.525 106.426,58.525C102.276,58.376 95.99,57.681 90.124,55.25C89.868,55.144 89.575,55.173 89.345,55.327C89.114,55.481 88.976,55.74 88.976,56.017L88.975,83.032C88.624,102.934 72.358,118.982 52.375,118.982C32.17,118.982 15.767,102.579 15.767,82.375C15.767,62.176 32.16,45.777 52.359,45.768ZM72.665,82.992L72.665,19.311C72.665,19.091 72.752,18.88 72.908,18.724C73.064,18.568 73.275,18.481 73.495,18.481L79.023,18.481C79.418,18.481 79.758,18.759 79.837,19.146C80.749,23.648 82.89,28.973 87.536,33.536C87.536,33.536 87.536,33.536 87.536,33.536C90.89,36.831 95.629,39.827 102.445,41.574L102.444,41.581L102.464,41.579C102.861,41.691 103.11,42.074 103.063,42.473L103.068,47.952C103.068,48.192 102.965,48.42 102.785,48.577C102.604,48.735 102.365,48.807 102.127,48.775C98.756,48.321 94.843,47.37 91.389,45.423C91.388,45.423 91.388,45.423 91.388,45.423C90.139,44.719 88.343,43.43 86.595,42.771C85.048,42.187 83.522,42.091 82.251,42.756C82.204,42.781 82.159,42.808 82.115,42.837C80.801,43.714 80.076,45.125 79.751,46.738C79.363,48.66 79.563,50.882 79.563,52.333L79.563,82.911C79.277,97.674 67.204,109.568 52.375,109.568C37.366,109.568 25.181,97.383 25.181,82.375C25.181,69.178 34.601,58.163 47.078,55.698C47.502,55.614 47.919,55.87 48.038,56.286C48.06,56.365 48.07,56.445 48.069,56.523L48.068,61.869C48.068,62.25 47.809,62.582 47.439,62.675C38.614,64.881 32.068,72.869 32.068,82.375C32.068,93.582 41.167,102.681 52.375,102.681C63.235,102.681 72.114,94.133 72.654,83.406L72.665,82.992Z" style="fill:white;"/>
    </g>
</svg>
